<svg width="18" height="26" viewBox="0 0 18 26" fill="none" xmlns="http://www.w3.org/2000/svg">
<path id="Union" fill-rule="evenodd" clip-rule="evenodd" d="M3.07494 10.1892V6.72281C3.07494 6.68768 3.07643 6.65293 3.07932 6.61864H3.07494C3.07494 3.03729 5.65771 0.133789 8.84343 0.133789C12.0025 0.133789 14.5687 2.98898 14.6114 6.52902C14.6134 6.55775 14.6144 6.5868 14.6144 6.61612V10.1892H15.9912C16.796 10.2239 17.4511 10.9258 17.5319 11.8171V23.9836C17.4084 24.704 16.9028 25.2751 16.2618 25.4193H1.50826C0.793723 25.3045 0.228744 24.664 0.133789 23.858V12.0012C0.136163 11.0005 0.860191 10.1892 1.75039 10.1892H3.07494ZM12.6678 6.61864V10.1892H5.02151V6.72281C5.02151 6.68767 5.02004 6.65292 5.01717 6.61864H5.01914C5.01914 4.24352 6.73307 2.31942 8.84343 2.31942C10.9562 2.31942 12.6678 4.24352 12.6678 6.61864Z" fill="#409EFF"/>
</svg>
