<svg width="181" height="103" viewBox="0 0 181 103" fill="none" xmlns="http://www.w3.org/2000/svg">
<g id="Group 1739332560">
<path id="Union" fill-rule="evenodd" clip-rule="evenodd" d="M73.4861 2.10272C73.2047 1.47766 73.6213 0.761381 74.3042 0.70207C84.4476 -0.178916 94.8512 -0.231218 105.035 0.547643C105.704 0.598874 106.129 1.28594 105.88 1.90988L99.2073 18.6292C99.0443 19.0377 98.6335 19.2912 98.1948 19.2578C92.8237 18.8485 87.3369 18.8775 81.9877 19.3433C81.5614 19.3804 81.1571 19.1457 80.9815 18.7555L73.4861 2.10272ZM139.844 6.9382C139.256 6.75535 138.459 6.83109 138.068 7.10297L116.733 21.9667C116.342 22.2386 116.508 22.6033 117.09 22.7897C121.252 24.1224 124.907 25.7603 127.907 27.6375C128.327 27.9 129.126 27.9677 129.71 27.7828L161.649 17.6709C162.233 17.486 162.381 17.1187 161.969 16.8536C155.936 12.973 148.444 9.61547 139.844 6.9382ZM176.703 32.7014C176.54 32.3058 176.134 32.071 175.708 32.1112L137.277 35.7455C136.594 35.81 136.178 36.5283 136.381 37.1831C136.945 39.008 136.988 40.8591 136.508 42.6892C136.337 43.339 136.761 44.0275 137.43 44.0836L176.059 47.3227C176.497 47.3595 176.911 47.1058 177.06 46.6919C178.728 42.0549 178.607 37.3194 176.703 32.7014ZM18.1425 17.5957C17.7435 17.8649 17.9088 18.2306 18.5019 18.4095L50.9296 28.189C51.5227 28.3679 52.3184 28.292 52.725 28.0252C55.6324 26.1175 59.2058 24.4423 63.3013 23.067C63.874 22.8746 64.0217 22.5083 63.6182 22.2405L41.5576 7.60076C41.1541 7.33298 40.3528 7.26549 39.7746 7.45436C31.3084 10.2197 23.9834 13.6537 18.1425 17.5957ZM5.51942 48.2053C5.09343 48.2456 4.68669 48.0108 4.5236 47.6152C2.61971 42.9972 2.4992 38.2617 4.16738 33.6247C4.31629 33.2108 4.72968 32.9571 5.16804 32.9939L43.797 36.233C44.4664 36.2891 44.8898 36.9776 44.7192 37.6274C44.2388 39.4575 44.2815 41.3085 44.8462 43.1335C45.0488 43.7883 44.6327 44.5066 43.9503 44.5711L5.51942 48.2053ZM41.3896 73.3797C41.977 73.5626 42.7748 73.4868 43.165 73.2149L64.5007 58.3512C64.891 58.0793 64.7254 57.7146 64.1433 57.5282C59.9813 56.1955 56.3265 54.5577 53.3261 52.6804C52.9065 52.4179 52.1073 52.3502 51.5231 52.5351L19.5841 62.647C18.9999 62.8319 18.8527 63.1992 19.2647 63.4643C25.2978 67.3449 32.7897 70.7024 41.3896 73.3797ZM107.741 78.2139C108.022 78.8389 107.606 79.5552 106.923 79.6145C96.7794 80.4955 86.3758 80.5478 76.1925 79.769C75.5226 79.7177 75.098 79.0307 75.347 78.4067L82.0197 61.6874C82.1827 61.2789 82.5935 61.0254 83.0322 61.0588C88.4033 61.468 93.8901 61.4391 99.2393 60.9733C99.6656 60.9362 100.07 61.1709 100.246 61.5611L107.741 78.2139ZM163.095 62.7217C163.494 62.4525 163.329 62.0868 162.736 61.9079L130.308 52.1283C129.715 51.9495 128.919 52.0254 128.513 52.2922C125.605 54.1999 122.032 55.8751 117.936 57.2504C117.364 57.4427 117.216 57.8091 117.619 58.0769L139.68 72.7166C140.083 72.9844 140.885 73.0519 141.463 72.863C149.929 70.0977 157.254 66.6636 163.095 62.7217Z" fill="url(#paint0_linear_561_948)"/>
<g id="Union_2" filter="url(#filter0_f_561_948)">
<path fill-rule="evenodd" clip-rule="evenodd" d="M73.4861 21.7861C73.2047 21.161 73.6213 20.4447 74.3042 20.3854C84.4476 19.5044 94.8512 19.4521 105.035 20.231C105.704 20.2822 106.129 20.9693 105.88 21.5932L99.2073 38.3125C99.0443 38.7211 98.6335 38.9746 98.1948 38.9412C92.8237 38.5319 87.3369 38.5608 81.9877 39.0266C81.5614 39.0638 81.1571 38.8291 80.9815 38.4389L73.4861 21.7861ZM139.844 26.6216C139.256 26.4387 138.459 26.5144 138.068 26.7863L116.733 41.6501C116.342 41.922 116.508 42.2867 117.09 42.4731C121.252 43.8057 124.907 45.4436 127.907 47.3209C128.327 47.5834 129.126 47.6511 129.71 47.4661L161.649 37.3543C162.233 37.1693 162.381 36.802 161.969 36.537C155.936 32.6564 148.444 29.2988 139.844 26.6216ZM176.703 52.3847C176.54 51.9891 176.134 51.7543 175.708 51.7946L137.277 55.4288C136.594 55.4934 136.178 56.2116 136.381 56.8664C136.945 58.6914 136.988 60.5424 136.508 62.3725C136.337 63.0223 136.761 63.7108 137.43 63.767L176.059 67.0061C176.497 67.0428 176.911 66.7892 177.06 66.3752C178.728 61.7382 178.607 57.0028 176.703 52.3847ZM18.1425 37.279C17.7435 37.5482 17.9088 37.9139 18.5019 38.0928L50.9296 47.8724C51.5227 48.0513 52.3184 47.9754 52.725 47.7086C55.6324 45.8008 59.2058 44.1256 63.3013 42.7503C63.874 42.558 64.0217 42.1917 63.6182 41.9239L41.5576 27.2841C41.1541 27.0163 40.3528 26.9488 39.7746 27.1377C31.3084 29.9031 23.9834 33.3371 18.1425 37.279ZM5.51942 67.8887C5.09343 67.929 4.68669 67.6942 4.5236 67.2986C2.61971 62.6805 2.4992 57.9451 4.16738 53.3081C4.31629 52.8941 4.72968 52.6405 5.16804 52.6772L43.797 55.9163C44.4664 55.9725 44.8898 56.661 44.7192 57.3108C44.2388 59.1409 44.2815 60.9919 44.8462 62.8169C45.0488 63.4717 44.6327 64.1899 43.9503 64.2545L5.51942 67.8887ZM41.3896 93.0631C41.977 93.2459 42.7748 93.1702 43.165 92.8983L64.5007 78.0345C64.891 77.7627 64.7254 77.3979 64.1433 77.2116C59.9813 75.8789 56.3265 74.241 53.3261 72.3638C52.9065 72.1012 52.1073 72.0335 51.5231 72.2185L19.5841 82.3303C18.9999 82.5153 18.8527 82.8826 19.2647 83.1476C25.2978 87.0283 32.7897 90.3858 41.3896 93.0631ZM107.741 97.8972C108.022 98.5223 107.606 99.2386 106.923 99.2979C96.7794 100.179 86.3758 100.231 76.1925 99.4523C75.5226 99.4011 75.098 98.714 75.347 98.0901L82.0197 81.3708C82.1827 80.9622 82.5935 80.7087 83.0322 80.7421C88.4033 81.1514 93.8901 81.1225 99.2393 80.6567C99.6656 80.6195 100.07 80.8542 100.246 81.2444L107.741 97.8972ZM163.095 82.4051C163.494 82.1358 163.329 81.7702 162.736 81.5913L130.308 71.8117C129.715 71.6328 128.919 71.7087 128.513 71.9755C125.605 73.8833 122.032 75.5585 117.936 76.9338C117.364 77.1261 117.216 77.4924 117.619 77.7602L139.68 92.4C140.083 92.6678 140.885 92.7352 141.463 92.5464C149.929 89.781 157.254 86.347 163.095 82.4051Z" fill="url(#paint1_linear_561_948)"/>
<path fill-rule="evenodd" clip-rule="evenodd" d="M73.4861 21.7861C73.2047 21.161 73.6213 20.4447 74.3042 20.3854C84.4476 19.5044 94.8512 19.4521 105.035 20.231C105.704 20.2822 106.129 20.9693 105.88 21.5932L99.2073 38.3125C99.0443 38.7211 98.6335 38.9746 98.1948 38.9412C92.8237 38.5319 87.3369 38.5608 81.9877 39.0266C81.5614 39.0638 81.1571 38.8291 80.9815 38.4389L73.4861 21.7861ZM139.844 26.6216C139.256 26.4387 138.459 26.5144 138.068 26.7863L116.733 41.6501C116.342 41.922 116.508 42.2867 117.09 42.4731C121.252 43.8057 124.907 45.4436 127.907 47.3209C128.327 47.5834 129.126 47.6511 129.71 47.4661L161.649 37.3543C162.233 37.1693 162.381 36.802 161.969 36.537C155.936 32.6564 148.444 29.2988 139.844 26.6216ZM176.703 52.3847C176.54 51.9891 176.134 51.7543 175.708 51.7946L137.277 55.4288C136.594 55.4934 136.178 56.2116 136.381 56.8664C136.945 58.6914 136.988 60.5424 136.508 62.3725C136.337 63.0223 136.761 63.7108 137.43 63.767L176.059 67.0061C176.497 67.0428 176.911 66.7892 177.06 66.3752C178.728 61.7382 178.607 57.0028 176.703 52.3847ZM18.1425 37.279C17.7435 37.5482 17.9088 37.9139 18.5019 38.0928L50.9296 47.8724C51.5227 48.0513 52.3184 47.9754 52.725 47.7086C55.6324 45.8008 59.2058 44.1256 63.3013 42.7503C63.874 42.558 64.0217 42.1917 63.6182 41.9239L41.5576 27.2841C41.1541 27.0163 40.3528 26.9488 39.7746 27.1377C31.3084 29.9031 23.9834 33.3371 18.1425 37.279ZM5.51942 67.8887C5.09343 67.929 4.68669 67.6942 4.5236 67.2986C2.61971 62.6805 2.4992 57.9451 4.16738 53.3081C4.31629 52.8941 4.72968 52.6405 5.16804 52.6772L43.797 55.9163C44.4664 55.9725 44.8898 56.661 44.7192 57.3108C44.2388 59.1409 44.2815 60.9919 44.8462 62.8169C45.0488 63.4717 44.6327 64.1899 43.9503 64.2545L5.51942 67.8887ZM41.3896 93.0631C41.977 93.2459 42.7748 93.1702 43.165 92.8983L64.5007 78.0345C64.891 77.7627 64.7254 77.3979 64.1433 77.2116C59.9813 75.8789 56.3265 74.241 53.3261 72.3638C52.9065 72.1012 52.1073 72.0335 51.5231 72.2185L19.5841 82.3303C18.9999 82.5153 18.8527 82.8826 19.2647 83.1476C25.2978 87.0283 32.7897 90.3858 41.3896 93.0631ZM107.741 97.8972C108.022 98.5223 107.606 99.2386 106.923 99.2979C96.7794 100.179 86.3758 100.231 76.1925 99.4523C75.5226 99.4011 75.098 98.714 75.347 98.0901L82.0197 81.3708C82.1827 80.9622 82.5935 80.7087 83.0322 80.7421C88.4033 81.1514 93.8901 81.1225 99.2393 80.6567C99.6656 80.6195 100.07 80.8542 100.246 81.2444L107.741 97.8972ZM163.095 82.4051C163.494 82.1358 163.329 81.7702 162.736 81.5913L130.308 71.8117C129.715 71.6328 128.919 71.7087 128.513 71.9755C125.605 73.8833 122.032 75.5585 117.936 76.9338C117.364 77.1261 117.216 77.4924 117.619 77.7602L139.68 92.4C140.083 92.6678 140.885 92.7352 141.463 92.5464C149.929 89.781 157.254 86.347 163.095 82.4051Z" fill="url(#paint2_radial_561_948)"/>
</g>
</g>
<defs>
<filter id="filter0_f_561_948" x="0.51023" y="17.1936" width="180.206" height="85.2962" filterUnits="userSpaceOnUse" color-interpolation-filters="sRGB">
<feFlood flood-opacity="0" result="BackgroundImageFix"/>
<feBlend mode="normal" in="SourceGraphic" in2="BackgroundImageFix" result="shape"/>
<feGaussianBlur stdDeviation="1.24489" result="effect1_foregroundBlur_561_948"/>
</filter>
<linearGradient id="paint0_linear_561_948" x1="90.6135" y1="0" x2="90.6135" y2="80.3166" gradientUnits="userSpaceOnUse">
<stop stop-color="#53ACFF" stop-opacity="0"/>
<stop offset="1" stop-color="#6DB9FE" stop-opacity="0.8"/>
</linearGradient>
<linearGradient id="paint1_linear_561_948" x1="90.6135" y1="19.6833" x2="90.6135" y2="99.9999" gradientUnits="userSpaceOnUse">
<stop stop-color="#0688FF" stop-opacity="0"/>
<stop offset="1" stop-color="#0B8AFF" stop-opacity="0.76"/>
</linearGradient>
<radialGradient id="paint2_radial_561_948" cx="0" cy="0" r="1" gradientUnits="userSpaceOnUse" gradientTransform="translate(105.297 97.5924) rotate(-119.519) scale(43.3822 76.497)">
<stop offset="0.0313276" stop-color="#3DB9FF"/>
<stop offset="1" stop-color="#3DD0FF" stop-opacity="0"/>
</radialGradient>
</defs>
</svg>
